<svg width="864" height="241" viewBox="0 0 864 241" fill="none" xmlns="http://www.w3.org/2000/svg">
<g clip-path="url(#clip0_3_163)">
<!-- <rect width="863.916" height="241" fill="white"/> -->
<g clip-path="url(#clip1_3_163)">
<!-- <rect width="127.916" height="241" fill="white"/> -->
<path d="M126.647 87.1392L99.099 54.5166H106.875C109.848 54.5166 112.258 52.1067 112.258 49.134V15.3826C112.258 12.4094 109.848 10 106.875 10H21.0434C18.0703 10 15.6609 12.4094 15.6609 15.3826V49.1336C15.6609 52.1063 18.0703 54.5161 21.0434 54.5161H28.8186L1.27032 87.1388C0.450203 88.1104 0 89.3397 0 90.6118C0 96.9246 0 221.158 0 225.617C0 228.59 2.40986 231 5.38258 231H122.534C125.507 231 127.916 228.59 127.916 225.617C127.916 218.464 127.916 95.7173 127.916 90.6118C127.918 89.341 127.467 88.1109 126.647 87.1392ZM26.426 43.751V20.7652H101.492V43.751C87.032 43.751 42.7598 43.751 26.426 43.751ZM117.152 220.236H10.7665V194.474H117.152V220.236ZM117.152 183.709H10.7665V122.257H117.152V183.709ZM117.152 111.492H10.7665V92.5805L42.91 54.5161H85.0089L117.152 92.5805V111.492Z" fill="#014683"/>
<path d="M46.2014 160.019H54.8852C56.0114 160.019 56.9243 160.932 56.9243 162.059V170.742C56.9243 171.868 57.8372 172.781 58.9634 172.781H68.9563C70.0825 172.781 70.9954 171.868 70.9954 170.742V162.059C70.9954 160.932 71.9083 160.019 73.0349 160.019H81.7187C82.8448 160.019 83.7578 159.107 83.7578 157.98V147.987C83.7578 146.861 82.8448 145.948 81.7187 145.948H73.0349C71.9088 145.948 70.9954 145.035 70.9954 143.909V135.225C70.9954 134.099 70.0825 133.186 68.9563 133.186H58.9634C57.8372 133.186 56.9243 134.099 56.9243 135.225V143.909C56.9243 145.035 56.0114 145.948 54.8852 145.948H46.2014C45.0753 145.948 44.1624 146.861 44.1624 147.987V157.98C44.1624 159.107 45.0753 160.019 46.2014 160.019Z" fill="#014683"/>
</g>
<path d="M160.881 189.5V52.8789H204.143C217.164 52.8789 227.548 56.3945 235.295 63.4258C243.043 70.457 246.916 79.8971 246.916 91.7461C246.916 99.6888 244.931 106.72 240.959 112.84C236.988 118.96 231.552 123.419 224.651 126.219C217.75 128.953 207.854 130.32 194.963 130.32H180.51V189.5H160.881ZM200.725 70.2617H180.51V112.938H201.897C209.839 112.938 215.959 111.082 220.256 107.371C224.553 103.595 226.701 98.224 226.701 91.2578C226.701 77.2604 218.043 70.2617 200.725 70.2617ZM338.03 146.141H274.846C275.302 154.734 278.166 161.57 283.44 166.648C288.778 171.727 295.647 174.266 304.045 174.266C315.764 174.266 326.571 170.62 336.467 163.328V180.711C330.998 184.357 325.562 186.961 320.158 188.523C314.82 190.086 308.537 190.867 301.311 190.867C291.415 190.867 283.407 188.816 277.287 184.715C271.168 180.613 266.252 175.112 262.541 168.211C258.895 161.245 257.073 153.204 257.073 144.09C257.073 130.418 260.946 119.318 268.694 110.789C276.441 102.195 286.5 97.8984 298.869 97.8984C310.783 97.8984 320.289 102.065 327.385 110.398C334.481 118.732 338.03 129.897 338.03 143.895V146.141ZM275.237 135.496H320.451C319.996 128.4 317.88 122.931 314.104 119.09C310.328 115.249 305.25 113.328 298.869 113.328C292.489 113.328 287.248 115.249 283.147 119.09C279.11 122.931 276.474 128.4 275.237 135.496ZM417.326 53.0742H435.198V189.5H397.209C383.928 189.5 373.316 185.301 365.373 176.902C357.496 168.504 353.557 157.241 353.557 143.113C353.557 129.897 357.691 119.025 365.959 110.496C374.293 101.967 384.905 97.7031 397.795 97.7031C403.785 97.7031 410.295 98.9727 417.326 101.512V53.0742ZM417.326 174.266V117.332C411.793 114.533 406.194 113.133 400.53 113.133C391.675 113.133 384.612 116.03 379.338 121.824C374.13 127.618 371.526 135.431 371.526 145.262C371.526 154.507 373.804 161.635 378.362 166.648C381.096 169.643 383.993 171.661 387.053 172.703C390.113 173.745 395.614 174.266 403.557 174.266H417.326ZM468.498 61.8633C471.428 61.8633 473.934 62.8724 476.018 64.8906C478.101 66.9089 479.143 69.3828 479.143 72.3125C479.143 75.1771 478.101 77.651 476.018 79.7344C473.934 81.8177 471.428 82.8594 468.498 82.8594C465.764 82.8594 463.355 81.8177 461.272 79.7344C459.188 77.5859 458.147 75.112 458.147 72.3125C458.147 69.5781 459.188 67.1693 461.272 65.0859C463.355 62.9375 465.764 61.8633 468.498 61.8633ZM459.709 99.6562H477.483V189.5H459.709V99.6562ZM559.709 135.496V173.68C559.709 176.74 560.751 178.27 562.834 178.27C564.983 178.27 568.336 176.674 572.893 173.484V184.324C568.856 186.928 565.601 188.686 563.127 189.598C560.718 190.574 558.179 191.062 555.51 191.062C547.893 191.062 543.401 188.068 542.033 182.078C534.481 187.938 526.441 190.867 517.912 190.867C511.662 190.867 506.454 188.816 502.287 184.715C498.121 180.548 496.037 175.34 496.037 169.09C496.037 163.426 498.056 158.38 502.092 153.953C506.194 149.461 511.988 145.913 519.475 143.309L542.229 135.496V130.711C542.229 119.904 536.825 114.5 526.018 114.5C516.317 114.5 506.877 119.513 497.698 129.539V110.105C504.599 101.967 514.527 97.8984 527.483 97.8984C537.183 97.8984 544.963 100.438 550.823 105.516C552.776 107.143 554.533 109.324 556.096 112.059C557.658 114.728 558.635 117.43 559.026 120.164C559.481 122.833 559.709 127.944 559.709 135.496ZM542.229 171.727V145.066L530.315 149.656C524.26 152.065 519.963 154.507 517.424 156.98C514.95 159.389 513.713 162.417 513.713 166.062C513.713 169.773 514.885 172.801 517.229 175.145C519.638 177.488 522.73 178.66 526.506 178.66C532.17 178.66 537.411 176.349 542.229 171.727ZM576.018 113.914L609.416 81.1016V99.6562H637.834V115.672H609.416V159.715C609.416 170.001 613.681 175.145 622.209 175.145C628.589 175.145 635.328 172.996 642.424 168.699V185.301C635.588 189.142 628.134 191.062 620.061 191.062C611.923 191.062 605.152 188.686 599.748 183.934C598.056 182.501 596.656 180.906 595.549 179.148C594.442 177.326 593.498 174.982 592.717 172.117C592.001 169.188 591.643 163.654 591.643 155.516V115.672H576.018V113.914ZM658.244 189.5V53.0742H692.424C706.226 53.0742 717.164 56.4922 725.237 63.3281C733.375 70.1641 737.444 79.4089 737.444 91.0625C737.444 99.0052 735.458 105.874 731.487 111.668C727.515 117.462 721.819 121.792 714.397 124.656C718.759 127.521 723.023 131.427 727.19 136.375C731.356 141.323 737.216 149.949 744.768 162.254C749.52 170.001 753.329 175.828 756.194 179.734L763.42 189.5H740.178L734.221 180.516C734.026 180.19 733.635 179.637 733.049 178.855L729.24 173.484L723.186 163.523L716.643 152.879C712.606 147.28 708.895 142.82 705.51 139.5C702.19 136.18 699.162 133.803 696.428 132.371C693.759 130.874 689.234 130.125 682.854 130.125H677.776V189.5H658.244ZM683.635 69.6758H677.776V112.742H685.198C695.093 112.742 701.864 111.896 705.51 110.203C709.221 108.51 712.086 105.971 714.104 102.586C716.187 99.1354 717.229 95.2292 717.229 90.8672C717.229 86.5703 716.089 82.6966 713.811 79.2461C711.532 75.7305 708.309 73.2565 704.143 71.8242C700.041 70.3919 693.205 69.6758 683.635 69.6758ZM838.127 99.6562H860.881L823.869 143.895L863.518 189.5H840.764L812.541 157.273L785.881 189.5H763.518L801.311 143.895L763.518 99.6562H785.881L812.541 130.516L838.127 99.6562Z" fill="#014683"/>
</g>
<defs>
<clipPath id="clip0_3_163">
<rect width="863.916" height="241" fill="white"/>
</clipPath>
<clipPath id="clip1_3_163">
<rect width="127.916" height="241" fill="white"/>
</clipPath>
</defs>
</svg>
